<svg xmlns="http://www.w3.org/2000/svg" width="260.433" height="195.242" viewBox="0 0 260.433 195.242"><defs><style>.a{fill:#fff;}</style></defs><g transform="translate(0 169.974)"><path class="a" d="M10.946,239.255h3.275V227.469h6.656V224.6H14.221v-6.96h7.653v-2.934H10.946Z" transform="translate(-10.946 -214.331)"/><rect class="a" width="3.208" height="24.545" transform="translate(14.026 0.378)"/><path class="a" d="M37.808,224.223c-1.664-1.766-2.353-2.5-2.353-4.305,0-.691,0-2.792,2.446-2.792A2.135,2.135,0,0,1,40.319,219a18.647,18.647,0,0,1,.117,2.333l.021.758h2.865v-.1c0-3.59,0-4.443-.71-5.608-.836-1.359-2.362-2.048-4.536-2.048-2.447,0-4.142.805-5.036,2.393a6.862,6.862,0,0,0-.72,3.4c0,2.145.436,3.683,2.821,6.136l3.307,3.382c1.373,1.4,2.215,2.355,2.215,4.234A2.74,2.74,0,0,1,37.7,236.8a2.643,2.643,0,0,1-2.823-2.8c-.041-.445-.041-.713-.041-3.269v-.105h-3.1v2.795c0,1.479.2,3.6,1.932,4.941A6.25,6.25,0,0,0,37.8,239.6c1.408,0,6-.428,6-5.928,0-2.83-.892-4.075-2.928-6.243Z" transform="translate(-10.946 -214.331)"/><path class="a" d="M56.811,214.708,50.7,224.917V214.708H47.49v24.547H50.7v-9.588l1.8-2.725,4.3,12.314H60.36l-5.751-15.263,5.789-9.284Z" transform="translate(-10.946 -214.331)"/><path class="a" d="M66.211,227.639h6.723v-2.968H66.211v-7.028h7.654v-2.934H62.971v24.547H74.141v-2.933H66.211Z" transform="translate(-10.946 -214.331)"/><path class="a" d="M89.093,225.71a12.8,12.8,0,0,0,.6-4.278c0-6.2-3.381-6.724-6.55-6.724H77.727v24.547h3.2V228.6h2.344l4.137,10.651h3.428l-4.39-11.03A3.541,3.541,0,0,0,89.093,225.71Zm-2.648-3.933c0,1.2,0,3.014-1.126,3.777-.619.428-1.13.432-4.389.432v-8.307c3.025,0,3.667.005,4.361.432C86.445,218.82,86.445,220.46,86.445,221.777Z" transform="translate(-10.946 -214.331)"/><rect class="a" width="3.208" height="24.547" transform="translate(82.945 0.377)"/><path class="a" d="M106.856,214.708h-4.9v24.547h4.83c2.653,0,4.945,0,6.361-2.258.86-1.44.944-3.077.981-5.6.069-3.311.069-4.832.069-6.174,0-5.918-.1-7.2-1.264-8.643C111.455,214.708,109.221,214.708,106.856,214.708Zm2.835,3.5c1,.712,1.06,1.936,1.09,4.639.035,2.345.035,3.19.035,5.448,0,1.537-.043,4.73-.205,5.807-.332,2.1-1.623,2.254-3.554,2.254h-1.645V217.714C108.336,217.714,108.982,217.73,109.691,218.209Z" transform="translate(-10.946 -214.331)"/><path class="a" d="M119.06,214.708h-.209v24.547h3.417V214.708H119.06Z" transform="translate(-10.946 -214.331)"/><path class="a" d="M138.705,225.71a12.91,12.91,0,0,0,.6-4.278c0-6.2-3.381-6.724-6.55-6.724h-5.627v24.547h3.417V228.6h2.134l4.114,10.584.026.067h3.633l-4.388-11.03A3.544,3.544,0,0,0,138.705,225.71Zm-8.165-8.031c2.842,0,3.47.015,4.152.432,1.152.708,1.152,2.28,1.152,3.666,0,1.2,0,3.014-1.126,3.777-.6.418-1.107.432-4.178.432Z" transform="translate(-10.946 -214.331)"/><path class="a" d="M146.745,236.322v-8.683h6.721v-2.968h-6.721v-7.028H154.4v-2.934h-11.1v24.547h11.384v-2.933h-7.931Z" transform="translate(-10.946 -214.331)"/><path class="a" d="M170.958,214.708h-3.594l-5.9,9.859v-9.859H158.05v24.547h3.412v-9.588l1.663-2.518,4.2,12.036.025.07h3.78l-5.758-15.263,5.8-9.284Z" transform="translate(-10.946 -214.331)"/><path class="a" d="M172.57,214.708h-.209v2.934h4.614v21.612h3.418V217.643h4.618v-2.934H172.57Z" transform="translate(-10.946 -214.331)"/><path class="a" d="M193.123,214.332c-.03,0-.059,0-.089,0s-.079,0-.12,0c-3.764,0-5.91,1.9-6.206,5.508-.1,1.335-.175,6.543-.175,7.973v.56a54.766,54.766,0,0,0,.248,6.83,4.8,4.8,0,0,0,2.39,3.7,6.885,6.885,0,0,0,3.328.7h.209c5.029,0,5.89-3.256,6.069-6.441.1-1.774.206-4.57.206-6.52,0-.087,0-.24,0-.446.01-1.331.038-4.867-.138-6.673C198.707,218.237,198.276,214.332,193.123,214.332ZM190.1,232.4c0-.285,0-.567-.009-.84-.041-1.546-.041-1.578-.041-3.234,0-5.886,0-6.238.074-7.44l0-.053c.069-1.292.2-3.68,2.719-3.743,2.484.063,2.544,2.292,2.583,3.775v.052c.015.877.022,1.76.03,2.643.009,1.012.018,2.057.038,3.077.034,1.912-.033,4.392-.174,6.472l-.007.093c-.1,1.527-.243,3.607-2.578,3.667C190.119,236.812,190.109,234.572,190.1,232.4Z" transform="translate(-10.946 -214.331)"/><path class="a" d="M215.21,225.71a12.851,12.851,0,0,0,.595-4.278c0-6.2-3.379-6.724-6.546-6.724h-5.624v24.547h3.418V228.6h2.128l4.138,10.651h3.637l-4.385-11.03A3.54,3.54,0,0,0,215.21,225.71Zm-4.01-7.6c1.153.709,1.153,2.349,1.153,3.666,0,1.2,0,3.014-1.125,3.777-.606.418-1.109.432-4.175.432v-8.307C209.894,217.679,210.522,217.694,211.2,218.111Z" transform="translate(-10.946 -214.331)"/><path class="a" d="M227.088,214.708h-3.415l-5.253,24.42-.027.127h3.557l.834-4.685h5.268l.861,4.685h3.6l-5.4-24.465Zm-1.736,5.766,2.144,11.262h-4.158Z" transform="translate(-10.946 -214.331)"/><path class="a" d="M231.591,214.708h-.209v2.934h4.623v21.612h3.418V217.643h4.618v-2.934H231.591Z" transform="translate(-10.946 -214.331)"/><path class="a" d="M249.524,236.322v-8.683h6.722v-2.968h-6.722v-7.028h7.655v-2.934h-11.1v24.547h11.38v-2.933h-7.931Z" transform="translate(-10.946 -214.331)"/><path class="a" d="M271.17,214.708H258.731v2.934h4.616v21.612h3.417V217.643h4.615v-2.934Z" transform="translate(-10.946 -214.331)"/></g><path class="a" d="M169.47,113.941s11.016-32.354,10.954-35.7-2.9-4.635-7.222-4.969c-4.308-.318-10.5.764-11.616,1.557a4.64,4.64,0,0,0-3.643-1.4,61.561,61.561,0,0,0-17.3,2.429V72.209a6.968,6.968,0,0,0,0-13.806v-6h5.939V50.273h-5.939V44.357H138.7V50.28h-5.933V52.4H138.7v6.013a6.965,6.965,0,0,0,0,13.791v3.658a61.366,61.366,0,0,0-17.29-2.436,4.616,4.616,0,0,0-3.648,1.4c-1.121-.793-7.3-1.875-11.623-1.557s-7.143,1.615-7.217,4.969,10.961,35.7,10.961,35.7Zm-6.642-36.149c.926-1.619,3.629-2.311,9.04-2.311,2.458,0,4.125.513,4.953,1.524a3.872,3.872,0,0,1,.518,3.359c-.523,2.614-2.7,8.894-2.719,8.957l.194.068c-.01,0-3.863-.963-4.587,1.16s3.094,5.48,2.268,6.3c-.728.726-2.522-4.726-4.3-2.947-1.447,1.447-1.232,6.608-.39,7.449.988.984,3.19-1.941,3.626-2.472s1.358-1.451,1.062,0-1.435,6.883-8.019,6.883c-4.513,0-5.836-.648-6.357-1.837a7.131,7.131,0,0,1-.216-4.616c.515-1.318.737-.962.935-.515s1.125,2.774,2.634,2.937,2.579-4.351,2.71-5.963-.617-3.063-2.743-1.058-2.348,1.9-2.54,1.963-.582-.26-.028-.84c.536-.58,4.083-4.059,4.22-5.121.1-.892-.337-2.007-3.188-2C160.738,85.228,162.408,78.529,162.828,77.792ZM145.364,94.511c-1.318-.586-3.224,1.062-3.936,1.741s-1.165-.025-1.053-.531c.114-.478,3.049-4.369,3.049-5.076s-.073-1.753-2.827-1.994h.206c0-2.549.177-9.366.961-10.289,1.043-1.211,6.246-1.87,10.069-2.26a20.534,20.534,0,0,1,5.9.029c.81.169,1.791.526,1.868,1.266.147,1.493-1.728,11.165-1.747,11.262l.2.04s-2.568-.164-2.764,1.179c-.193,1.282,1.933,5.822,1.933,5.822s.192.745-.227.841-2.833-2.771-3.382-2.935-1.871-.767-1.871,4c0,2.87,1,3.673,1.475,3.673,1.37,0,3.162-3.105,3.518-3.069s-.135,1.782-.43,2.458a12.643,12.643,0,0,1-3.144,4.448c-1.217.864-3.207.745-5.538.738a19.687,19.687,0,0,1-4.965-.424c-1-.483-1.725-1.569-2.172-4.055s-.181-2.947.051-3.057c.368-.176,1.941,2.391,2.4,2.8.606.523,2.11,1.353,2.715-.449S146.683,95.091,145.364,94.511ZM119.75,77.4a.968.968,0,0,1,.392-.668c.563-.46,2.269-1.155,7.368-.632,3.825.395,9.03,1.059,10.061,2.265.8.924.975,7.74.976,10.289h.206c-2.76.241-2.834,1.292-2.834,1.994s2.94,4.6,3.048,5.076c.119.506-.343,1.213-1.052.531s-2.612-2.321-3.937-1.741-.9,4.358-.294,6.156,2.122.972,2.71.449c.47-.408,2.037-2.975,2.416-2.8.225.11.5.58.049,3.057s-1.169,3.572-2.171,4.055a19.757,19.757,0,0,1-4.978.424c-2.318.007-4.314.126-5.53-.738a12.828,12.828,0,0,1-3.151-4.448c-.289-.676-.774-2.426-.418-2.458s2.144,3.069,3.506,3.069c.487,0,1.482-.8,1.482-3.673,0-4.766-1.319-4.159-1.872-3.994s-2.963,3.025-3.376,2.93-.227-.841-.227-.841,2.121-4.54,1.934-5.822c-.2-1.344-2.77-1.179-2.77-1.179l.2-.04C121.471,88.562,119.6,78.891,119.75,77.4Zm-12.9,21.483c-.294-1.451.622-.532,1.064,0s2.623,3.456,3.614,2.472c.843-.841,1.075-6-.379-7.449-1.775-1.779-3.575,3.673-4.3,2.947-.831-.821,2.992-4.174,2.268-6.3s-4.6-1.161-4.6-1.16l.195-.067c-.022-.064-2.185-6.343-2.708-8.958a3.871,3.871,0,0,1,.516-3.357c.827-1.009,2.492-1.52,4.949-1.52,5.4,0,8.108.689,9.047,2.305.42.737,2.085,7.436,2.918,10.922-2.845-.008-3.285,1.107-3.181,2,.124,1.062,3.671,4.541,4.214,5.121s.17.9-.028.84-.418.031-2.546-1.963-2.861-.551-2.736,1.058,1.192,6.125,2.707,5.963,2.444-2.484,2.647-2.937.408-.8.917.515a7.008,7.008,0,0,1-.215,4.616c-.514,1.189-1.838,1.837-6.347,1.837C108.29,105.763,107.142,100.33,106.853,98.88Zm43.458,22.392c-1.527-.036-.6,1.763-.873,2.981s-2.4.837-2.4.837c2.854-.164,1.29-2.164,1.436-3.691s1.889-1.8,3.581-.127c1.654,1.636,2.963,1,2.963,1C152.6,123.635,151.627,121.3,150.311,121.272Zm1.25,6.813c-.449-1.854-2.473-.933-3.345-.436a3.452,3.452,0,0,1-3.551-.036,3.01,3.01,0,0,1-1.042-3.3,2.364,2.364,0,0,0-.23-2.351,2.59,2.59,0,0,1,1.018,1.988c-.073,1.175-.182,2.775,1.842,2.739s2.394-1.431,4.78-.915c2.441.527,1.732,3.276,1.111,3.791a2.546,2.546,0,0,1-2.209.444S152.009,129.939,151.561,128.085Zm-48.015,3.353a.644.644,0,1,1-.644-.644A.643.643,0,0,1,103.546,131.438Zm76.127,0a.645.645,0,1,1-.646-.644A.647.647,0,0,1,179.673,131.437Zm6.556-3.286c-.847,2.179-3.043,5.252-3.468,4.878-1.174-1.027,4.727-7.221,3.975-7.718-1.247-.676-6.552.981-8.986,2.6-4.6,3.071-13.446,9.837-17.51,18.093l-.124.019a6.354,6.354,0,0,0-3.18,1.233,2.263,2.263,0,0,0-.794,1.294.542.542,0,0,0,.089.584c.167.078.173-.187.306-.291a1.441,1.441,0,0,1,1.215-.238,1.5,1.5,0,0,1,.5.249.811.811,0,0,1,.342.875h0c-.088.259-.146.439-.146.439s-.439,1.591-.706,2.542-4.942,19.3,4.054,29.249a8.674,8.674,0,0,0,6.294,2.9h.01c.151.015,4.1.349,9.226-4.48a24.863,24.863,0,0,0,1.8-1.843,13.416,13.416,0,0,0,1.358-1.9,9.246,9.246,0,0,0,.53-.986,18.156,18.156,0,0,0,.8-2.093,11.481,11.481,0,0,0-.276-7.292.1.1,0,0,0-.182-.01,7.87,7.87,0,0,1-1.251,1.671,7.147,7.147,0,0,0-1.782,2.122c-.76,1.693-2.04.448-3.283.712s-4.933,1.063-5.072,3.564a.083.083,0,0,0,0,.022,1.661,1.661,0,0,0,.111.39.1.1,0,0,0,.174.023c.294-.371,1.271-1.28,2.995.121.048.035.1.072.143.11a7.9,7.9,0,0,1,1.887,2.133,2.08,2.08,0,0,1,.333,1.4c-.579,3.363-6.432,3.207-6.432,3.207a5.7,5.7,0,0,1-3.79-1.837c-4.974-4.587-2.589-14.878,2.869-22.875a.1.1,0,0,1,.153-.019,1.6,1.6,0,0,1,.324.344,1.438,1.438,0,0,1,.14,1.23c-.058.158-.31.244-.185.38a.546.546,0,0,0,.585-.091,2.266,2.266,0,0,0,.993-1.148,6.315,6.315,0,0,0,.222-3.364.1.1,0,0,1,.017-.074c.749-1.052,11.334-14.5,12.876-17.705.9-1.868,2.786-4.141,3.514-7.855l0-.017C186.912,127.919,186.4,127.718,186.229,128.151Zm-7.2,4.566a1.285,1.285,0,1,1,1.284-1.287A1.282,1.282,0,0,1,179.03,132.717Zm-54.036,14.544a6.35,6.35,0,0,0-3.181-1.234l-.123-.019c-4.064-8.256-12.908-15.022-17.511-18.093-2.434-1.622-7.738-3.28-8.985-2.6-.752.5,5.149,6.691,3.975,7.718-.426.375-2.621-2.7-3.468-4.877-.175-.433-.684-.232-.671.557v.017c.728,3.714,2.615,5.987,3.515,7.856,1.542,3.2,12.127,16.652,12.875,17.7a.1.1,0,0,1,.018.074,6.308,6.308,0,0,0,.221,3.365,2.27,2.27,0,0,0,.994,1.147.542.542,0,0,0,.584.091c.125-.136-.126-.221-.185-.38a1.442,1.442,0,0,1,.14-1.23,1.619,1.619,0,0,1,.324-.344.1.1,0,0,1,.154.019c5.457,8,7.843,18.289,2.869,22.875a5.689,5.689,0,0,1-3.79,1.837s-5.853.157-6.432-3.206a2.077,2.077,0,0,1,.332-1.4A7.9,7.9,0,0,1,108.538,175c.047-.038.1-.075.142-.111,1.725-1.4,2.7-.492,3-.121a.1.1,0,0,0,.173-.023,1.669,1.669,0,0,0,.112-.39.155.155,0,0,0,0-.022c-.139-2.5-3.832-3.3-5.073-3.564s-2.522.981-3.283-.712a7.158,7.158,0,0,0-1.781-2.122,7.835,7.835,0,0,1-1.251-1.671.1.1,0,0,0-.183.011,11.479,11.479,0,0,0-.275,7.291,18.058,18.058,0,0,0,.8,2.094,9.224,9.224,0,0,0,.53.985,13.2,13.2,0,0,0,1.358,1.9,24.473,24.473,0,0,0,1.8,1.843c5.131,4.83,9.075,4.5,9.226,4.48h.009a8.678,8.678,0,0,0,6.3-2.9c8.995-9.952,4.33-28.3,4.053-29.248s-.7-2.543-.7-2.543-.059-.18-.147-.439h0a.81.81,0,0,1,.343-.874,1.4,1.4,0,0,1,1.714-.011c.133.1.139.369.306.291a.544.544,0,0,0,.09-.585A2.268,2.268,0,0,0,124.994,147.261ZM102.9,132.717a1.285,1.285,0,1,1,1.282-1.287A1.285,1.285,0,0,1,102.9,132.717Zm44.462,5.346c1.1,2.719-.517,3.82-1.064,4.009a.316.316,0,0,0-.169.161c-.049.18-.112.4-.192.66-.182.648-.5,1.67-1.025,3.083-.35,1.594.458,2.5,2.163,6.581,2.23,5.332-2.327,13.6-2.327,13.6a35.6,35.6,0,0,0-2.8,11.921c-.182,4.726.072,7.126,2.436,9.525a4.03,4.03,0,0,0,2.956,1.259,7.271,7.271,0,0,0,3.518-1.138,3.5,3.5,0,0,0,.5-.411,3.126,3.126,0,0,0,.728-1.562,1.725,1.725,0,0,0-.579-1.729,2.964,2.964,0,0,0-1.135-.882,7.975,7.975,0,0,0-2.987-.478,5.077,5.077,0,0,0-.968.1c-.091.023-.181.094-.279.128a2.164,2.164,0,0,0-.551.224,1.442,1.442,0,0,0-.621,1.071c-.009.168.186.347.018.422a.543.543,0,0,1-.5-.318,2.264,2.264,0,0,1-.451-1.449,6.36,6.36,0,0,1,1.166-3.206c.067-.1.125-.223.2-.325s.179-.18.252-.274a3.817,3.817,0,0,1,1.115-1.156s1.556-.858,1.556-2.112a6.439,6.439,0,0,1,.195-1.984c.121-.521-.133-.885-.17-1.376a8.163,8.163,0,0,0-.113-1.379.435.435,0,0,1,.211-.251l.225.064c.213.1.512.273.778.433a7.6,7.6,0,0,1,.737.455,5.981,5.981,0,0,1,.864.978c.237.281.491.54.7.826a15.945,15.945,0,0,1,1.069,1.836,14.28,14.28,0,0,1,1.107,3.027,9.132,9.132,0,0,1,.2,1.1,13.4,13.4,0,0,1,.129,2.329c-.027.8-.13,1.641-.253,2.566a9.868,9.868,0,0,1-1.309,3.824,7.678,7.678,0,0,1-4.456,3.6c-6.18,1.309-12.275-3.926-14.217-9.926A41.983,41.983,0,0,1,131.48,170.1s-.764-11.923,1.642-17.113c2.015-4.348,3.591-5.752,3.353-7.791-.108-.522-.192-.955-.257-1.316-.173-.875-.254-1.408-.293-1.764a.17.17,0,0,0-.05-.042c-.566-.3-1.955-1.69-.761-4.02.517-1.008.406-1.81-.072-2.117a1.464,1.464,0,0,0-.6-.161,1.873,1.873,0,0,0-1.218.4c-.4.278-2.169,1.885-2.169,1.885a16.353,16.353,0,0,1-4.571,2.3,3.508,3.508,0,0,1-1.033.07.315.315,0,0,1-.177-.144,14.215,14.215,0,0,1-2.468-2.093c-.506-.612-1.562-1.991-2.04-2.568s-1.449-1.647-1.864-2.263a1.722,1.722,0,0,0-.961-.492,7.818,7.818,0,0,0-.8-.113,2.773,2.773,0,0,1-.458-.08c-.152-.058-.239-.2-.4-.358l-.015-.009a1.068,1.068,0,0,0-.469-.109c-.337-.046-.629-.076-.954-.145-.158-.034-.369-.053-.462-.17-.163-.205.029-.413.252-.478a2.19,2.19,0,0,1,.764.01c.166.017.377.057.557.061.046,0,.167,0,.181-.035.025-.061-.128-.251-.171-.332a2.368,2.368,0,0,0-.228-.322c-.075-.1-.149-.213-.221-.309a.648.648,0,0,1-.063-.1.71.71,0,0,0-.23-.292c-.014-.01-.028-.02-.041-.031-.063-.052-.108-.125-.17-.176-.132-.109-.244-.072-.4-.107a.686.686,0,0,1-.13-.044.48.48,0,0,0-.129-.055c-.043,0-.1.044-.15.052a1.27,1.27,0,0,1-.3-.035.39.39,0,0,1-.284-.138.162.162,0,0,1,.027-.184c.072-.055.21-.02.3-.027a.821.821,0,0,0,.292-.062c-.1-.075-.215-.088-.318-.162a1.7,1.7,0,0,1-.334-.287.637.637,0,0,0-.3-.191.438.438,0,0,1-.138-.07c-.2-.163-.1-.426.115-.362.016-.081.118-.055.171-.065.073.03.134.094.209.122.114.044.261.022.394.067s.263.072.392.1.265.072.394.094a.716.716,0,0,1,.375.18c.11.087.239.163.361.255s.235.188.355.276a3.038,3.038,0,0,1,.71.507,7.864,7.864,0,0,0,1.34,1.472,4.078,4.078,0,0,0,1.337.62h0a2.176,2.176,0,0,1,1.064.862,30.551,30.551,0,0,0,3.433,3.157c.455.315,1.725,1.093,2.465,1.568.336-.229.809-.832,1.165-1.154.455-.411,1.886-1.6,2.313-1.943S131.1,133,131.1,133a11.43,11.43,0,0,1,1.546-1.463,2.344,2.344,0,0,1,.612-.355,7.073,7.073,0,0,1,2.738-.412c4.284-.45,3.562-2.34,3.127-2.82-.346-.381-.986.11-1.67.407l-.018.01a2.964,2.964,0,0,1-.851.225.7.7,0,0,1-.382-.1.825.825,0,0,1-.241-.187.685.685,0,0,1-.175-.6.355.355,0,0,0-.043-.243.275.275,0,0,0-.229-.165c-.3-.027-.2-.35-.2-.35a.247.247,0,0,1,.069-.118c.012-.008.02-.018.019-.022a.227.227,0,0,0-.1-.056.412.412,0,0,1-.148-.077c-.137-.091-.014-.379-.014-.379a.521.521,0,0,0,.014-.18c-.023-.1-.183-.111-.288-.13a1.788,1.788,0,0,1-.353-.093.3.3,0,0,1-.158-.177c-.021-.077.006-.145.1-.338a3.869,3.869,0,0,0,.262-.642,1.345,1.345,0,0,0,.068-.505,1.992,1.992,0,0,0-.069-.483c0-.008-.068-.208-.075-.221a3.643,3.643,0,0,1-.233-.629,2.956,2.956,0,0,1-.072-.606c0-.082-.005-.2-.009-.265a3.691,3.691,0,0,1,.015-.646l.059-.388s-.279.442-.618,1.024-1.443,2.1-2.376.363c-.923-1.715-.606-3.017-2.533-1.478,0,0,1.017-2.074,2.073-1.018a3.125,3.125,0,0,1,.581,1.042c.255.7.618,1.636,1.358.254.576-1.076,1.017-3.321,5.829-3.321a4.537,4.537,0,0,1,3.6,1.828c1.244,1.439-.108,5.044-.084,6.135.044,1.949,2.117,3.776,2.868,4.32.582.491,3.141-.05,4.692,1.317a17.334,17.334,0,0,1,1.57,1.547,14.026,14.026,0,0,0,1.254,1.317c.428.34,1.859,1.533,2.313,1.944.292.264.664.718.973,1a.358.358,0,0,0,.407.031c.738-.474,1.782-1.138,2.217-1.439a30.624,30.624,0,0,0,3.432-3.157,2.181,2.181,0,0,1,1.064-.862h0a4.069,4.069,0,0,0,1.337-.62,7.864,7.864,0,0,0,1.34-1.472,3.059,3.059,0,0,1,.71-.507c.121-.088.237-.187.356-.276s.251-.168.36-.255a.719.719,0,0,1,.376-.18c.128-.022.258-.059.394-.094s.258-.06.391-.1.281-.023.395-.067c.075-.028.135-.092.209-.122.052.01.155-.016.17.065.214-.064.313.2.115.362a.428.428,0,0,1-.138.07.637.637,0,0,0-.3.191,1.7,1.7,0,0,1-.334.287c-.1.074-.223.087-.318.162a.827.827,0,0,0,.293.062c.086.007.225-.028.3.027a.164.164,0,0,1,.028.184.394.394,0,0,1-.284.138,1.284,1.284,0,0,1-.3.035c-.054-.008-.107-.053-.15-.052a.474.474,0,0,0-.128.055.721.721,0,0,1-.131.044c-.159.035-.27,0-.4.107-.062.051-.107.124-.17.176l-.042.031a.718.718,0,0,0-.23.292.583.583,0,0,1-.063.1c-.072.1-.145.206-.22.309a2.281,2.281,0,0,0-.229.322c-.043.081-.2.271-.171.332.015.035.135.036.181.035.18,0,.391-.044.557-.061a2.19,2.19,0,0,1,.764-.01c.223.065.415.273.252.478-.093.117-.3.136-.462.17-.325.069-.617.1-.954.145a1.068,1.068,0,0,0-.469.109l-.014.009c-.162.159-.249.3-.4.358a2.768,2.768,0,0,1-.459.08,7.858,7.858,0,0,0-.8.113,1.728,1.728,0,0,0-.961.492c-.415.616-1.386,1.687-1.864,2.263s-1.533,1.956-2.04,2.568a14.206,14.206,0,0,1-2.467,2.093.619.619,0,0,1-.284.161,2.615,2.615,0,0,1-.927-.087,22.914,22.914,0,0,1-4.6-2.494,22.162,22.162,0,0,0-2.756-2.105C147.6,135.352,146.63,136.25,147.362,138.063Z" transform="translate(-10.946 -44.357)"/></svg>