<svg xmlns="http://www.w3.org/2000/svg" width="278.945" height="134.653" viewBox="0 0 278.945 134.653"><defs><style>.a{fill:#fff;}</style></defs><path class="a" d="M181.58,553.422l-21.126-10.3-32.519,30.849Z" transform="translate(-51.061 -543.119)"/><path class="a" d="M209.04,543.577l-80.762,30.93H196.73Z" transform="translate(-49.662 -541.243)"/><path class="a" d="M199.42,576.752l-39.264-33.3-19.1,47.994Z" transform="translate(2.61 -541.768)"/><path class="a" d="M135.172,567.181a4.62,4.62,0,1,1,4.617,4.449,4.482,4.482,0,0,1-4.617-4.449m-8,50.417,3.512-4.251a4.291,4.291,0,0,0,2.9,1.263c1.726,0,2.688-.662,2.688-2.989V583.654H124.553V605.91h-6.964V583.654h-4.755v-5.646h4.755V566.977c0-6.7,3.38-9.9,9.306-9.9a9.885,9.885,0,0,1,7.448,2.79l-3.864,4.521a3.8,3.8,0,0,0-2.963-1.263c-1.721,0-2.963,1-2.963,3.783v11.1h18.754v33.415c0,5.976-3.38,9.234-9.036,9.234a9.364,9.364,0,0,1-7.1-3.06" transform="translate(-112.834 -486.005)"/><path class="a" d="M144.364,575.623c0-5.116-3.243-8.7-8.41-8.7s-8.481,3.584-8.481,8.7,3.309,8.771,8.481,8.771,8.41-3.655,8.41-8.771m-24.058,0c0-8.3,6.893-14.549,15.648-14.549,8.822,0,15.577,6.246,15.577,14.549s-6.755,14.549-15.577,14.549c-8.756,0-15.648-6.246-15.648-14.549" transform="translate(-82.269 -469.671)"/><path class="a" d="M127.886,561.617h6.964l-.071,5.248c1.929-4.383,5.243-5.778,8.415-5.778a8.88,8.88,0,0,1,4.755,1.2l-2.342,6.043a8.176,8.176,0,0,0-3.793-.931c-4.139,0-6.964,2.326-6.964,8.572v13.551h-6.964Z" transform="translate(-51.262 -469.614)"/><path class="a" d="M156.249,591.2c0-5.05-3.314-8.5-8.415-8.5-5.03,0-8.206,3.451-8.206,8.5,0,5.249,3.177,8.7,8.206,8.7,5.1,0,8.415-3.451,8.415-8.7m-23.788,0c0-8.435,6.068-14.483,13.444-14.483,5.1,0,8.135,2.26,10.064,5.447V557.251H163V605.21h-7.03l.209-5.045c-1.792,3.385-5.31,5.645-10.135,5.645-7.514,0-13.582-6.18-13.582-14.615" transform="translate(-32.548 -485.31)"/><path class="a" d="M144.2,592V576.721h-4.414V572.8H144.2v-14.35h4.76V572.8h7.992v3.92h-7.992v15.343c0,3.655,1.308,4.785,3.375,4.785a5.3,5.3,0,0,0,3.859-1.593l2.617,2.922a9.414,9.414,0,0,1-6.959,2.723c-4.342,0-7.651-2.393-7.651-8.9" transform="translate(-2.592 -480.401)"/><path class="a" d="M169.759,575.5c0-5.91-4.067-10.3-10.135-10.3a10.3,10.3,0,0,0,0,20.592c6.068,0,10.135-4.383,10.135-10.293m-25.305,0c0-8.038,6.618-14.35,15.17-14.35,8.481,0,15.027,6.312,15.027,14.35s-6.546,14.279-15.027,14.279c-8.552,0-15.17-6.241-15.17-14.279" transform="translate(16.511 -469.348)"/><path class="a" d="M151.981,578.145V561.27h4.826v16.412c0,4.78,2.342,7.438,7.035,7.438,5.376,0,8.888-3.319,8.888-8.7V561.27h4.831v27.5H172.73l.137-5.579a10.908,10.908,0,0,1-10.2,6.175c-6.338,0-10.685-4.184-10.685-11.225" transform="translate(47.301 -468.869)"/><path class="a" d="M159.007,561.7h4.826l-.137,5.381c1.792-4.185,4.958-5.91,8.338-5.91A8.529,8.529,0,0,1,177,562.495l-1.858,4.052a6.841,6.841,0,0,0-3.93-1.064c-4.067,0-7.376,2.79-7.376,9.234V589.2h-4.826Z" transform="translate(76.041 -469.295)"/><path class="a" d="M163.189,583.4l3.721-2.062A9.116,9.116,0,0,0,175.182,586c3.864,0,6.068-1.594,6.068-4.118,0-2.988-2.484-3.655-7.448-5.05-4.48-1.262-8.618-2.988-8.618-8.17,0-4.785,4.139-7.5,9.377-7.5a11.235,11.235,0,0,1,9.514,4.449l-3.309,2.459a7.382,7.382,0,0,0-6.205-3.126c-3.1,0-4.963,1.395-4.963,3.523,0,2.591,1.726,3.324,6.755,4.714,4.826,1.263,9.443,3.125,9.443,8.44,0,4.648-3.238,8.17-10.405,8.17-6.277,0-10.344-2.922-12.2-6.379" transform="translate(93.148 -469.348)"/></svg>