<svg xmlns="http://www.w3.org/2000/svg" width="357.689" height="86.015" viewBox="0 0 357.689 86.015"><defs><style>.a{fill:#fff;}</style></defs><path class="a" d="M1356.914,721h-48.356a30.9,30.9,0,1,0,0,61.8h48.356a30.9,30.9,0,1,0,0-61.8Zm-66.206,30.895a17.852,17.852,0,1,1,17.851,17.851A17.853,17.853,0,0,1,1290.708,751.895Z" transform="translate(-1149.927 -696.782)"/><path class="a" d="M612.9,727.92H600.635a.725.725,0,0,0-.725.725v57.838a.725.725,0,0,0,.725.725H612.9a.725.725,0,0,0,.725-.725V728.645A.725.725,0,0,0,612.9,727.92Z" transform="translate(-598.436 -702.413)"/><path class="a" d="M821.9,721.2c-7,0-14.7,2.962-19.348,9.564a.712.712,0,0,1-1.243-.108c-3.113-6.52-8.976-9.458-16.254-9.458a20.239,20.239,0,0,0-16.723,8.18.712.712,0,0,1-1.3-.41v-5.8a.725.725,0,0,0-.725-.725H754.035a.725.725,0,0,0-.725.725v57.838a.725.725,0,0,0,.725.725H766.3a.725.725,0,0,0,.725-.725V746.256c0-9.069,6.235-13.6,13.04-13.6,6.688,0,10.542,3.743,10.542,12.47v35.891a.725.725,0,0,0,.725.725H803.6a.725.725,0,0,0,.725-.725V746.256c0-9.069,6.235-13.6,13.04-13.6s10.542,3.743,10.542,12.47v35.891a.725.725,0,0,0,.725.725H840.9a.725.725,0,0,0,.725-.725v-36.8C841.622,727.892,832.779,721.2,821.9,721.2Z" transform="translate(-723.259 -696.945)"/><path class="a" d="M1934.244,727.9h-11.938a.727.727,0,0,0-.687.492l-14.445,42.724a.727.727,0,0,1-1.373,0l-14.672-42.732a.725.725,0,0,0-.686-.488h-13.184a.725.725,0,0,0-.68.972l21.124,57.84a.726.726,0,0,0,.68.477h14.969a.721.721,0,0,0,.68-.479l20.9-57.835a.723.723,0,0,0-.687-.972Z" transform="translate(-1637.236 -702.397)"/><path class="a" d="M2232.945,721.21c-16.891,0-29.475,12.245-29.475,30.61v.907c0,18.7,12.584,30.153,30.042,30.153,14.833,0,24.8-6.483,27.057-18.395a.745.745,0,0,0-.73-.877h-11.8a.719.719,0,0,0-.695.576c-1.2,5.425-5.492,8.495-13.489,8.495-9.959,0-15.6-6.053-16.282-16.781a.746.746,0,0,1,.745-.79h41.916a.725.725,0,0,0,.725-.725V751.14C2260.947,729.942,2247.683,721.21,2232.945,721.21Zm13.6,24.715h-27.918a.745.745,0,0,1-.728-.872c1.576-8.661,7.036-13.866,15.047-13.866,8.275,0,13.434,4.285,14.333,13.925a.745.745,0,0,1-.734.812Z" transform="translate(-1903.265 -696.953)"/><path class="a" d="M600.161,591a7.885,7.885,0,1,0,8.161,7.936A7.939,7.939,0,0,0,600.161,591Z" transform="translate(-592 -591)"/></svg>