<svg xmlns="http://www.w3.org/2000/svg" width="140" height="42" viewBox="0 0 140 42"><defs><style>.a{fill:#420cb1;}</style></defs><g transform="translate(-36.703 -51.3)"><path class="a" d="M173.076,87.559c-6.931,13.31-26.65-.8-31.629,0,0-.229.39-.344.488-.115.1-.229-.39-.459.1-.574.39.344.1-.688-.1-.229-.1-.229,0-.8.293-.574-.1-.344-1.171-.115-.586,0-.1.344.1.229-.2.344.1.229.39-.344.39.115-.2.229-.781.229-.39-.344-.2-.115-.1-.8-.488-.459-.39-.115-.488-.459-.586-.8,0-.229-2.148.459-2.343.8-.293-.344-2.831-.918-3.221.115-.39.8-.976-.115-.39-.229.1-.229-1.171,0-.293-.229-7.81-.115-40.708-.918-61.989-2.983,11.91-.115,7.907-.115.879-.8-8.1.115-31.727-1.262-23.331-2.065,19.427,1.147-3.026-.688-12.4-1.377C32.014,77,64.229,80.215,65.6,78.265c-6.541-.115-9.372-.8-16.986-1.492-3.807-1.492,17.962,1.262,21.281.459-5.955-.574-26.162-1.262-15.912-1.721,0-.229-.293-.115-.488-.229,2.245-.574-1.269-.115-2.148-.115,5.857-1.836,3.807-.688,9.176-1.492-5.857-1.262-4.783.344-7.614-1.377.1-.459,2.441.229,1.171-.344,3.221.115-3.612-.688-.586-.918-1.66-1.262,1.074-.459,2.343-.344,0-1.377-4.783-.574-.976-1.147,4,1.492,1.757-.115,7.517.688-2.831.115-2.538,0-4.2,1.377,5.174-.115,19.719,1.377,5.857-.115-9.86-.688,10.641-.688,1.952-1.377-2.343-1.147-7.029,0-7.224-.918-1.074,0-5.467-.459-2.343-.459.1-.115-1.66-1.262-1.367-.344-3.221-1.147-1.855-.115-4.2.115.488-.344.488-.229,1.074-.459-1.952-1.033-.976.574-2.441.344,1.269,0-.39-.574.781-1.033,1.464.115,1.757.229,4.3.344,1.171.115,2.929-.229.293-.459,2.245-.229,2.148-1.262-.1-.688-9.372-1.492-8.4-.8-17.572-2.524,5.174.688,11.226,0,3.319-.229-3.026-1.147,7.029.229,9.079.574-1.367-.918,2.538-.115,3.612-.688-3.9-1.033,1.171.229,3.124-.459-5.955-1.262-11.617-.688-19.134-2.41,21.184,2.41,10.934,0,29.872,1.033-1.562-1.033-5.174,0-6.345-1.262-.488.459-1.66.574-3.124-.115C68.72,60.25,45.1,59.1,40.312,57.726c20.208-.115,1.855.229-2.05-1.836,3.71.344,7.517.574,10.348.8,4.1-1.721,17.084-.574,17.474-1.951-1.464,1.492,9.469,1.492,8.591.574,14.546.459,24.112.574,4.979-.344,16.205-.115,21.281-.459,32.7-1.033,4-1.377,11.812.918,13.862-1.033-.488-.918.39-1.492.976-1.606,1.074,1.836-.781,2.18,1.952,2.065.683-.115,3.417.574,3.319,0,.1-.688.39-1.033.683-.344-.293,1.262,2.343.688,2.441.229a12.753,12.753,0,0,0,5.662.8c3.417.115,8.2.688,12.593,1.033,23.039.459.293,1.492.586,1.262-.1.688-.2.459.2.115-1.074-.574.293-.574.293,0-.2-1.262.683-.115.586-1.033.39.115-.1.459.586.344.293-.459.1-.574.39-.918.586.574.488.115.586-.115-.1-.344.2,0,.39,0-.1-.344.293-.115.1-.344.2,0,.781.688.781-.115.293.229-.1.115.293.344-.2.229-.2.229.1.115,0-.574.781-.688.2-.229,0,.459.683-.115.781-.115-.1.115.293,1.033.39.574-.39-.344.293,0,.293-.229.293.115.2.115.2.459.488.115-.2-.229.2-.459.1.574.488.574.781.459-.2,0-.2.574-.1.344.1-.688.683-.115.879-.115.293-.115-.1.115-.1.344.1.115.39.115.2.344.39.229.683.459.976,0,.293.8-.879,0-.488.574.293-.344.39.344.488.115.2.115.2-.344.293,0,.2-.344-.1.229.2.459.39.344.2,0,.39-.229.293,0,.1.574,0,.344-.2.229-.1.115.1.229-.2.229-.2-.229-.39.115a2.036,2.036,0,0,0,1.171,0c0,.574,1.074.688.2,1.147.488.229.488-.115.586.459,0-.229.586,0,.2-.344-.2-.229.1-.344.2-.459-.39,0-.488-.344-.586-.574.293-.8-.488-1.147.39-1.033-.39-.459,0-.688,0,0,.2,0,.39-.344.586,0a.264.264,0,0,1,.39,0c-.1.115,0,.344.1.344.1.688.488.574.1,1.147-.2.115-.293-.229-.293.229-.1-.115-.293-.229-.293-.115-.39.459-.1.8-.488.918-.1.8.2-.115.488.229-.293.229,0,.688.2.918-.488-.115-.2.688.2,1.147.1-.229.2-.115.293.115-.2,0-.39,0-.39.229.2-.344.2.344.1.574.2-.229.2.459.39,0,0-.344.2.115,0,.344-.683-.115.2.344.2.344-.2,0-.1.229-.488.115.2.115.293.688.2.115.683.115.586.574,0,.918.488-.115.2.229,0,.229.586.574.1,0,.2.688-.39.8.2-.344.2.115.39-.344-.1,1.033.39.344a.626.626,0,0,0,.2.344c.879.344-.586.8-.586.574-.1.574-.1.8-.488,1.033,0,.344.2-.229.39,0-.2.344.2.459-.1.688.1.115.586-.344.293.115-.586.229-.2.574-.293.8-.1.344-.586.688-.39.8-.1.574,0,.229.2-.115.2.459.488.115.781.115.293.459-.1-.229.2-.229.39-.574.2,1.033.39.344,1.074-.459-.2.688.39.574.1-.229.293-.115.586-.115.1.229-.293.344,0,.344.1-.688.293,0,.586,0-.2.688.488,0,.2.574.293-.115.683.344.781.918.488.115.781.574.586.918.39.115.1.344.586.459-.293,0,.1.344-.293.229.2.115.488.229.2.688.39.459.2,1.147.2,1.377,0,.574.488.688.879,1.147.293-.344.488.8.683.688.293-.115-.1.688.2.459,0-.344.2.115.1.229.2,0,.2,0,.293.229-.1.229-.1,0-.2,0-.2.115.2.115,0,.344.39.344.1.229-.1.459.2,0,.39.115.39.229.1.115.488,0,.293.229-.293-.344-.1.229-.39,0-.293,0-.2.344.1.459.1-.229.293-.115,0-.344.2-.229.293.344.293.115.39.344-.683.229,0,.459.1-.115.1.459.293.115-.293-.229.1-.574.1-.115.2,0,.293-.115.2.229.293.115.293-.115.683,0,.1.229-.1.229-.293.574.293.115.1-.115.488.229-.1.459-.1.115-.39.344-.1-.229-.2.459-.1.115.2.344,0-.229.2-.115,0,.115-.293.344-.1.459.2-.115.293.229.293.344-.2.229-.488-.229-.488.115.1.115.683.574.39.115.293-.115.2.115.2.229.2.115.1.115,0,.344" transform="translate(0 0)"/></g></svg>