<svg xmlns="http://www.w3.org/2000/svg" width="120" height="39.997" viewBox="0 0 120 39.997"><defs><style>.a{fill:#fceafc;}</style></defs><g transform="translate(36.006 17.599)"><path class="a" d="M373.259,187.409c0,3.6-3.13,5.14-6.52,5.14-3.13,0-5.52-1.19-6.74-3.73l4.07-2.32a2.572,2.572,0,0,0,2.66,1.85c1.13,0,1.69-.34,1.69-.97,0-1.72-7.709-.81-7.709-6.24,0-3.42,2.88-5.14,6.14-5.14a6.853,6.853,0,0,1,6.11,3.35l-4.01,2.16a2.29,2.29,0,0,0-2.1-1.38c-.81,0-1.32.31-1.32.88C365.55,182.81,373.259,181.62,373.259,187.409Z" transform="translate(-360 -176)"/><path class="a" d="M521.859,176.53V192.2h-4.7v-1.47a5.882,5.882,0,0,1-4.67,1.91c-4.11,0-7.489-3.6-7.489-8.269s3.38-8.269,7.489-8.269a5.882,5.882,0,0,1,4.67,1.91v-1.47h4.7Zm-4.7,7.839a3.731,3.731,0,1,0-3.73,3.82A3.577,3.577,0,0,0,517.159,184.369Z" transform="translate(-490.501 -176.09)"/><path class="a" d="M701.429,180.4l-5.8,15.669H690.3L684.5,180.4h5.2l3.26,9.939,3.26-9.939Z" transform="translate(-652.052 -179.96)"/><path class="a" d="M876.029,180.4l-5.8,15.669H864.9L859.1,180.4h5.2l3.26,9.939,3.26-9.939Z" transform="translate(-809.194 -179.96)"/><path class="a" d="M1050.509,180.4l-5.36,15.2c-1.76,4.98-4.54,6.96-8.929,6.74v-4.38c2.19,0,3.23-.69,3.92-2.6l-6.24-14.949h5.17l3.48,9.589,2.95-9.589h5.01Z" transform="translate(-966.515 -179.96)"/></g><path class="a" d="M15.939,40,0,13.479H25.608a1.383,1.383,0,0,0,1.19-2.1L19.979,0H40ZM8.309,18.179l7.629,12.7,7.639-12.7ZM28.278,4.7l1.7,2.84,1.71-2.84Z"/></svg>