<svg xmlns="http://www.w3.org/2000/svg" width="322.475" height="67.625" viewBox="0 0 322.475 67.625"><defs><style>.a{fill:#fff;}</style></defs><path class="a" d="M-38.208,260.224l7.7-1.925c1.339,6.612,5.273,10.127,11.383,10.127,5.859,0,10.295-4.1,10.295-9.793,0-4.771-2.929-7.617-11.8-11.383-11.132-5.022-14.982-9.29-14.982-16.823,0-8.7,7.114-15.4,16.489-15.4A16.6,16.6,0,0,1-2.555,228.418l-7.781,1.925c-1.088-4.852-4.352-7.7-8.788-7.7-4.938,0-8.454,3.264-8.454,7.781,0,3.683,2.344,6.026,8.956,8.956C-4.983,245.242-.8,249.761-.8,258.633c0,9.96-7.949,17.409-18.327,17.409C-29.169,276.043-36.032,270.267-38.208,260.224Zm39.586-45.7A6.011,6.011,0,0,1,7.656,208.5a6.068,6.068,0,1,1,0,12.136A6.029,6.029,0,0,1,1.378,214.527Zm27.788,55.991H29v4.352H22.554v-61.1h6.7v21.34h.167a16.849,16.849,0,0,1,12.973-5.859c11.718,0,20,9.542,20,23.435s-8.283,23.436-19.917,23.436C37.034,276.126,32.1,274.118,29.166,270.519ZM55.7,252.691c0-10.379-5.44-17.158-13.308-17.158A12.968,12.968,0,0,0,29.25,248.506v8.286a12.9,12.9,0,0,0,12.722,13.057C50.258,269.849,55.7,263.069,55.7,252.691Zm13.473,10.881c0-7.533,4.352-11.3,15.484-14.061,8.537-2.092,11.216-3.934,11.216-7.449,0-4.1-3.515-6.7-8.956-6.7-5.775,0-9.876,3.515-11.048,9.458l-6.78-1.339c1.59-8.7,8.537-14.229,17.828-14.229,9.96,0,16.07,5.524,16.07,14.48v31.136H96.708v-4.6H96.54c-2.511,3.683-7.282,5.859-12.806,5.859C74.779,276.126,69.171,271.272,69.171,263.572Zm27.118-3.766V250.1h-.167c-.921,2.176-3.766,3.683-9.625,5.189-7.7,2.009-10.63,4.1-10.63,7.868,0,4.352,2.929,6.7,8.37,6.7C91.268,269.849,96.289,265.664,96.289,259.805Zm17.158-29.294h6.528v3.934h.167c2.678-3.1,7.7-5.189,12.385-5.189,10.295,0,16.907,6.612,16.907,16.907v28.708h-6.7V247.083c0-7.2-4.185-11.55-10.964-11.55-6.944,0-11.631,4.687-11.631,11.55v27.788h-6.7Zm46.45-16.737h6.7V250.1h.167l18.414-19.585h9.374L178.06,247.669l17.66,27.2h-7.951L173.456,252.44h-.167l-6.7,7.114v15.317h-6.7Zm38.752,38.917c0-13.978,8.367-23.435,20.587-23.435,11.969,0,19.836,8.872,19.836,22.013V254.7H205.51c.167,8.286,5.44,15.317,13.559,15.317,6.194,0,9.625-2.26,13.475-8.788l5.524,3.348c-3.85,7.617-10.295,11.55-18.832,11.55C206.933,276.126,198.65,266.668,198.65,252.691Zm33.644-3.432c-.251-7.784-5.273-13.894-13.057-13.894-7.617,0-13.475,6.612-13.559,13.894Zm15.986-18.748h6.528v3.934h.167c2.678-3.1,7.7-5.189,12.387-5.189,10.292,0,16.9,6.612,16.9,16.907v28.708h-6.7V247.083c0-7.2-4.185-11.55-10.962-11.55-6.947,0-11.634,4.687-11.634,11.55v27.788h-6.7Z" transform="translate(38.208 -208.501)"/></svg>