<svg xmlns="http://www.w3.org/2000/svg" width="148.677" height="221.441" viewBox="0 0 148.677 221.441"><defs><style>.a{fill:#fff;}</style></defs><g transform="translate(0 0)"><path class="a" d="M45.489,21.826l-26.4,15.631H66.635Z" transform="translate(-12.913 36.29)"/><path class="a" d="M92.521,12.367a71.036,71.036,0,0,0-21.7,3.194,76.433,76.433,0,0,0-30.217,18C19.054,54.032,18.993,82.136,19.1,86.122l9.98-5.9L45.513,70.5c.338-1.345,3.753-13.438,16.724-23.731,12.689-10.085,28.037-11.4,30.285-11.534V12.367Z" transform="translate(-12.925 -12.363)"/><path class="a" d="M142.706,40.941H66.033L22.765,64.347H123.482l19.223,22.521Z" transform="translate(5.972 134.573)"/><path class="a" d="M148.67,66.643A50.772,50.772,0,0,0,97.682,16.085V39.368a27.387,27.387,0,0,1,27.5,27.287,26.874,26.874,0,0,1-4.4,14.765,47,47,0,0,1-5.638,6.307L80.792,114.3C55.906,133.243,41,153.658,38.71,157.067A132.508,132.508,0,0,0,25.2,182.7c-4.311,11.387-6.83,22.4-7.112,31.181l28.749-21.742c.368-1.437,3.949-14.844,17.074-30.383,13.813-16.386,24.7-24.438,33.429-30.936,1.941-1.449,3.8-2.831,5.577-4.213,1.345-1.044,3.359-2.487,5.706-4.2a258.711,258.711,0,0,0,21.625-16.84A50.342,50.342,0,0,0,148.67,66.643Z" transform="translate(-18.086 6.772)"/></g></svg>