<svg xmlns="http://www.w3.org/2000/svg" width="247.557" height="62.52" viewBox="0 0 247.557 62.52"><defs><style>.a{fill:#fff;fill-rule:evenodd;}</style></defs><g transform="translate(0.043 -0.477)"><path class="a" d="M33.377,1.661l-10.5,30.707L12.29,1.661H-.043l18.3,45.547h9.15L45.71,1.661ZM87.408,14.686A6.207,6.207,0,1,1,81.2,8.53a6.09,6.09,0,0,1,6.207,6.157M73.083,39.867c7.719,0,12.1-3.71,16.234-9.077,2.227-2.92,5.171-3.475,7.161-1.895,2.148,1.658,2.228,4.658,0,7.578C90.511,44.368,82.872,49.1,73.083,49.1c-10.662,0-19.813-5.84-26.417-15.866-1.829-2.605-1.353-5.605.636-7.026,2.149-1.5,5.093-.869,7,1.974,4.774,6.946,10.9,11.682,18.778,11.682m43.689-15.551c0,9.315,5.411,14.21,11.459,14.21,5.728,0,11.617-4.579,11.617-14.21,0-9.474-5.889-14.051-11.539-14.051C122.184,10.265,116.773,14.607,116.773,24.316Zm0-22.577V7.977a17.8,17.8,0,0,1,15.039-7.5c8.913,0,19.336,7.419,19.336,23.287,0,16.577-10.025,24.629-20.291,24.629a16.71,16.71,0,0,1-14.083-7.185V63H105.554V1.739h11.219Zm53.873,22.577c0,9.315,5.41,14.21,11.458,14.21,5.728,0,11.617-4.579,11.617-14.21,0-9.474-5.888-14.051-11.538-14.051-6.127,0-11.538,4.341-11.538,14.051Zm0-22.577V7.977a17.8,17.8,0,0,1,15.038-7.5C194.6.478,205.02,7.9,205.02,23.765c0,16.577-10.026,24.629-20.291,24.629a16.71,16.71,0,0,1-14.083-7.185V63H159.426V1.739h11.219Z" transform="translate(0 0)"/><g transform="translate(209.638 0.477)"><path class="a" d="M19.214.054c9.232,0,15.995,4.262,18.781,15L27.888,16.631c-.159-5.447-3.58-7.1-8.435-7.1-3.82,0-6.6,1.656-6.6,4.262,0,2.052,1.431,4.184,5.729,4.973L26.3,20.182c7.559,1.423,11.618,6.316,11.618,13.027,0,9.867-8.991,14.762-17.427,14.762-8.912,0-18.778-4.58-20.368-15.71l10.1-1.579c.558,5.763,4.139,7.816,9.867,7.816,4.376,0,7.321-1.579,7.321-4.341,0-2.447-1.353-4.264-6.128-5.131l-7-1.262C6.882,26.42,2.347,21.209,2.347,14.579,2.347,4.316,11.735.054,19.214.054" transform="translate(-0.119 -0.054)"/></g></g></svg>